<svg width="304" height="52" viewBox="0 0 304 52" fill="none" xmlns="http://www.w3.org/2000/svg">
<path d="M13.9331 3C9.42337 5.96992 5.99146 10.3149 4.14684 15.3899C2.30222 20.4649 2.14322 25.9994 3.69343 31.172C5.24365 36.3445 8.42045 40.8793 12.7523 44.1033C17.0841 47.3272 22.34 49.0684 27.7399 49.0684C33.1397 49.0684 38.3956 47.3272 42.7275 44.1033C47.0593 40.8793 50.2361 36.3445 51.7863 31.172C53.3365 25.9994 53.1775 20.4649 51.3329 15.3899C49.4883 10.3149 46.0564 5.96992 41.5466 3C37.0368 5.96992 33.6049 10.3149 31.7603 15.3899C29.9157 20.4649 29.7567 25.9994 31.3069 31.172C32.8571 36.3445 36.0339 40.8793 40.3657 44.1033C44.6975 47.3272 49.9535 49.0684 55.3533 49.0684C60.7532 49.0684 66.0091 47.3272 70.3409 44.1033C74.6727 40.8793 77.8495 36.3445 79.3998 31.172C80.95 25.9994 80.791 20.4649 78.9463 15.3899C77.1017 10.3149 73.6698 5.96992 69.1601 3C64.6503 5.96992 61.2184 10.3149 59.3738 15.3899C57.5291 20.4649 57.3701 25.9994 58.9203 31.172C60.4706 36.3445 63.6474 40.8793 67.9792 44.1033C72.311 47.3272 77.5669 49.0684 82.9668 49.0684C88.3666 49.0684 93.6226 47.3272 97.9544 44.1033C102.286 40.8793 105.463 36.3445 107.013 31.172C108.563 25.9994 108.404 20.4649 106.56 15.3899C104.715 10.3149 101.283 5.96992 96.7735 3C92.2637 5.96992 88.8318 10.3149 86.9872 15.3899C85.1426 20.4649 84.9836 25.9994 86.5338 31.172C88.084 36.3445 91.2608 40.8793 95.5926 44.1033C99.9245 47.3272 105.18 49.0684 110.58 49.0684C115.98 49.0684 121.236 47.3272 125.568 44.1033C129.9 40.8793 133.076 36.3445 134.627 31.172C136.177 25.9994 136.018 20.4649 134.173 15.3899C132.329 10.3149 128.897 5.96992 124.387 3C119.877 5.96992 116.445 10.3149 114.601 15.3899C112.756 20.4649 112.597 25.9994 114.147 31.172C115.697 36.3445 118.874 40.8793 123.206 44.1033C127.538 47.3272 132.794 49.0684 138.194 49.0684C143.594 49.0684 148.849 47.3272 153.181 44.1033C157.513 40.8793 160.69 36.3445 162.24 31.172C163.79 25.9994 163.631 20.4649 161.787 15.3899C159.942 10.3149 156.51 5.96992 152 3C147.491 5.96992 144.059 10.3149 142.214 15.3899C140.37 20.4649 140.211 25.9994 141.761 31.172C143.311 36.3445 146.488 40.8793 150.82 44.1033C155.151 47.3272 160.407 49.0684 165.807 49.0684C171.207 49.0684 176.463 47.3272 180.795 44.1033C185.127 40.8793 188.303 36.3445 189.854 31.172C191.404 25.9994 191.245 20.4649 189.4 15.3899C187.556 10.3149 184.124 5.96992 179.614 3C175.104 5.96992 171.672 10.3149 169.828 15.3899C167.983 20.4649 167.824 25.9994 169.374 31.172C170.924 36.3445 174.101 40.8793 178.433 44.1033C182.765 47.3272 188.021 49.0684 193.421 49.0684C198.82 49.0684 204.076 47.3272 208.408 44.1033C212.74 40.8793 215.917 36.3445 217.467 31.172C219.017 25.9994 218.858 20.4649 217.014 15.3899C215.169 10.3149 211.737 5.96992 207.227 3C202.718 5.96992 199.286 10.3149 197.441 15.3899C195.596 20.4649 195.437 25.9994 196.988 31.172C198.538 36.3445 201.715 40.8793 206.046 44.1033C210.378 47.3272 215.634 49.0684 221.034 49.0684C226.434 49.0684 231.69 47.3272 236.022 44.1033C240.353 40.8793 243.53 36.3445 245.081 31.172C246.631 25.9994 246.472 20.4649 244.627 15.3899C242.782 10.3149 239.351 5.96992 234.841 3C230.331 5.96992 226.899 10.3149 225.055 15.3899C223.21 20.4649 223.051 25.9994 224.601 31.172C226.151 36.3445 229.328 40.8793 233.66 44.1033C237.992 47.3272 243.248 49.0684 248.648 49.0684C254.047 49.0684 259.303 47.3272 263.635 44.1033C267.967 40.8793 271.144 36.3445 272.694 31.172C274.244 25.9994 274.085 20.4649 272.241 15.3899C270.396 10.3149 266.964 5.96992 262.454 3C257.944 5.96992 254.513 10.3149 252.668 15.3899C250.823 20.4649 250.664 25.9994 252.215 31.172C253.765 36.3445 256.942 40.8793 261.273 44.1033C265.605 47.3272 270.861 49.0684 276.261 49.0684C281.661 49.0684 286.917 47.3272 291.249 44.1033C295.58 40.8793 298.757 36.3445 300.307 31.172C301.858 25.9994 301.699 20.4649 299.854 15.3899C298.009 10.3149 294.577 5.96992 290.068 3" stroke="#3534BE" stroke-opacity="0.1" stroke-width="4"/>
</svg>
