<svg width="46" height="46" viewBox="0 0 46 46" fill="none" xmlns="http://www.w3.org/2000/svg">
<path d="M14.1777 14.0911H8.92773C8.62937 14.0911 8.34322 14.2096 8.13224 14.4206C7.92126 14.6315 7.80273 14.9177 7.80273 15.2161V31.7161C7.80273 31.8638 7.83183 32.0101 7.88837 32.1466C7.94491 32.2831 8.02777 32.4071 8.13224 32.5116C8.23671 32.616 8.36072 32.6989 8.49722 32.7554C8.63371 32.812 8.78 32.8411 8.92773 32.8411H14.1777C14.3255 32.8411 14.4718 32.812 14.6083 32.7554C14.7447 32.6989 14.8688 32.616 14.9732 32.5116C15.0777 32.4071 15.1606 32.2831 15.2171 32.1466C15.2736 32.0101 15.3027 31.8638 15.3027 31.7161V15.2161C15.3027 14.9177 15.1842 14.6315 14.9732 14.4206C14.7623 14.2096 14.4761 14.0911 14.1777 14.0911V14.0911Z" stroke="#FAFAFA" stroke-width="1.5" stroke-linecap="round" stroke-linejoin="round"/>
<path d="M36.6777 14.0911H31.4277C31.1294 14.0911 30.8432 14.2096 30.6322 14.4206C30.4213 14.6315 30.3027 14.9177 30.3027 15.2161V31.7161C30.3027 31.8638 30.3318 32.0101 30.3884 32.1466C30.4449 32.2831 30.5278 32.4071 30.6322 32.5116C30.7367 32.616 30.8607 32.6989 30.9972 32.7554C31.1337 32.812 31.28 32.8411 31.4277 32.8411H36.6777C36.8255 32.8411 36.9718 32.812 37.1083 32.7554C37.2447 32.6989 37.3688 32.616 37.4732 32.5116C37.5777 32.4071 37.6606 32.2831 37.7171 32.1466C37.7736 32.0101 37.8027 31.8638 37.8027 31.7161V15.2161C37.8027 14.9177 37.6842 14.6315 37.4732 14.4206C37.2623 14.2096 36.9761 14.0911 36.6777 14.0911V14.0911Z" stroke="#FAFAFA" stroke-width="1.5" stroke-linecap="round" stroke-linejoin="round"/>
<path d="M2.17773 27.9661V18.9661C2.17773 18.6677 2.29626 18.3815 2.50724 18.1706C2.71822 17.9596 3.00437 17.8411 3.30273 17.8411H6.67773C6.9761 17.8411 7.26225 17.9596 7.47323 18.1706C7.68421 18.3815 7.80273 18.6677 7.80273 18.9661V27.9661C7.80273 28.2644 7.68421 28.5506 7.47323 28.7616C7.26225 28.9725 6.9761 29.0911 6.67773 29.0911H3.30273C3.00437 29.0911 2.71822 28.9725 2.50724 28.7616C2.29626 28.5506 2.17773 28.2644 2.17773 27.9661V27.9661Z" stroke="#FAFAFA" stroke-width="1.5" stroke-linecap="round" stroke-linejoin="round"/>
<path d="M43.4277 27.9661V18.9661C43.4277 18.6677 43.3092 18.3815 43.0982 18.1706C42.8873 17.9596 42.6011 17.8411 42.3027 17.8411H38.9277C38.6294 17.8411 38.3432 17.9596 38.1322 18.1706C37.9213 18.3815 37.8027 18.6677 37.8027 18.9661V27.9661C37.8027 28.2644 37.9213 28.5506 38.1322 28.7616C38.3432 28.9725 38.6294 29.0911 38.9277 29.0911H42.3027C42.6011 29.0911 42.8873 28.9725 43.0982 28.7616C43.3092 28.5506 43.4277 28.2644 43.4277 27.9661V27.9661Z" stroke="#FAFAFA" stroke-width="1.5" stroke-linecap="round" stroke-linejoin="round"/>
<path d="M15.3027 23.4661H30.3027" stroke="#FAFAFA" stroke-width="1.5" stroke-linecap="round" stroke-linejoin="round"/>
</svg>
