<svg width="34" height="34" viewBox="0 0 34 34" fill="none" xmlns="http://www.w3.org/2000/svg">
<path fill-rule="evenodd" clip-rule="evenodd" d="M10.3871 0.77234C12.0977 0.69134 12.6432 0.67334 17.0007 0.67334C21.3581 0.67334 21.9036 0.69284 23.6127 0.77234C25.3219 0.85184 26.4886 1.13234 27.5094 1.53884C28.5784 1.95434 29.5481 2.60384 30.3502 3.44384C31.1669 4.26734 31.7969 5.26334 32.1994 6.36434C32.5961 7.41434 32.8673 8.61434 32.9461 10.3693C33.0248 12.1318 33.0423 12.6928 33.0423 17.1733C33.0423 21.6553 33.0234 22.2163 32.9461 23.9758C32.8688 25.7308 32.5961 26.9308 32.1994 27.9808C31.7969 29.082 31.1658 30.0796 30.3502 30.9043C29.5481 31.7443 28.5784 32.3923 27.5094 32.8063C26.4886 33.2143 25.3219 33.4933 23.6156 33.5743C21.9036 33.6553 21.3581 33.6733 17.0007 33.6733C12.6432 33.6733 12.0977 33.6538 10.3871 33.5743C8.68086 33.4948 7.51419 33.2143 6.49336 32.8063C5.42283 32.3923 4.45289 31.7432 3.65107 30.9043C2.83496 30.0803 2.2034 29.0832 1.80044 27.9823C1.40523 26.9323 1.13398 25.7323 1.05523 23.9773C0.976484 22.2148 0.958984 21.6538 0.958984 17.1733C0.958984 12.6913 0.977943 12.1303 1.05523 10.3723C1.13253 8.61434 1.40523 7.41434 1.80044 6.36434C2.204 5.26346 2.83603 4.26631 3.65253 3.44234C4.45321 2.60309 5.42217 1.9535 6.4919 1.53884C7.51273 1.13234 8.6794 0.85334 10.3857 0.77234H10.3871ZM23.4829 3.74234C21.7913 3.66284 21.2838 3.64634 17.0007 3.64634C12.7175 3.64634 12.21 3.66284 10.5184 3.74234C8.95357 3.81584 8.10482 4.08434 7.53898 4.31084C6.79086 4.61084 6.25565 4.96634 5.69419 5.54384C5.16197 6.07642 4.75237 6.72476 4.49544 7.44134C4.27523 8.02334 4.01419 8.89634 3.94273 10.5058C3.86544 12.2458 3.8494 12.7678 3.8494 17.1733C3.8494 21.5788 3.86544 22.1008 3.94273 23.8408C4.01419 25.4503 4.27523 26.3233 4.49544 26.9053C4.75211 27.6208 5.1619 28.2703 5.69419 28.8028C6.2119 29.3503 6.84336 29.7718 7.53898 30.0358C8.10482 30.2623 8.95357 30.5308 10.5184 30.6043C12.21 30.6838 12.7161 30.7003 17.0007 30.7003C21.2852 30.7003 21.7913 30.6838 23.4829 30.6043C25.0477 30.5308 25.8965 30.2623 26.4623 30.0358C27.2104 29.7358 27.7456 29.3803 28.3071 28.8028C28.8394 28.2703 29.2492 27.6208 29.5059 26.9053C29.7261 26.3233 29.9871 25.4503 30.0586 23.8408C30.1359 22.1008 30.1519 21.5788 30.1519 17.1733C30.1519 12.7678 30.1359 12.2458 30.0586 10.5058C29.9871 8.89634 29.7261 8.02334 29.5059 7.44134C29.2142 6.67184 28.8686 6.12134 28.3071 5.54384C27.7893 4.99645 27.159 4.57516 26.4623 4.31084C25.8965 4.08434 25.0477 3.81584 23.4829 3.74234V3.74234ZM14.9517 22.2598C16.096 22.7498 17.3702 22.8159 18.5566 22.4469C19.743 22.0779 20.7681 21.2967 21.4567 20.2367C22.1454 19.1767 22.4549 17.9036 22.3324 16.635C22.2099 15.3663 21.6629 14.1808 20.785 13.2808C20.2254 12.7056 19.5487 12.2651 18.8036 11.9911C18.0586 11.7171 17.2638 11.6164 16.4764 11.6963C15.689 11.7761 14.9286 12.0346 14.2499 12.453C13.5713 12.8715 12.9913 13.4395 12.5517 14.1161C12.1121 14.7928 11.8238 15.5613 11.7077 16.3663C11.5915 17.1713 11.6502 17.9928 11.8798 18.7716C12.1093 19.5505 12.5039 20.2673 13.035 20.8704C13.5662 21.4736 14.2208 21.9481 14.9517 22.2598ZM11.1702 11.1763C11.9359 10.3888 12.8449 9.76409 13.8453 9.33788C14.8456 8.91167 15.9178 8.6923 17.0007 8.6923C18.0835 8.6923 19.1557 8.91167 20.156 9.33788C21.1564 9.76409 22.0654 10.3888 22.8311 11.1763C23.5967 11.9639 24.2041 12.8988 24.6185 13.9278C25.0328 14.9568 25.2461 16.0596 25.2461 17.1733C25.2461 18.2871 25.0328 19.3899 24.6185 20.4189C24.2041 21.4479 23.5967 22.3828 22.8311 23.1703C21.2847 24.7608 19.1875 25.6544 17.0007 25.6544C14.8138 25.6544 12.7166 24.7608 11.1702 23.1703C9.62391 21.5798 8.7552 19.4227 8.7552 17.1733C8.7552 14.924 9.62391 12.7668 11.1702 11.1763V11.1763ZM27.0748 9.95534C27.2646 9.77124 27.4164 9.54986 27.5215 9.3043C27.6266 9.05874 27.6827 8.79399 27.6865 8.52573C27.6903 8.25748 27.6417 7.99116 27.5436 7.74255C27.4456 7.49395 27.3 7.26811 27.1156 7.0784C26.9312 6.88869 26.7116 6.73898 26.4699 6.63812C26.2282 6.53726 25.9693 6.4873 25.7085 6.49121C25.4477 6.49513 25.1903 6.55282 24.9515 6.66088C24.7128 6.76895 24.4975 6.92518 24.3186 7.12034C23.9705 7.49988 23.7799 8.00402 23.7873 8.52573C23.7947 9.04745 23.9995 9.54566 24.3582 9.9146C24.7169 10.2836 25.2012 10.4942 25.7085 10.5018C26.2157 10.5094 26.7058 10.3134 27.0748 9.95534V9.95534Z" fill="#FAFAFA"/>
</svg>
