<svg width="46" height="46" viewBox="0 0 46 46" fill="none" xmlns="http://www.w3.org/2000/svg">
<path d="M38.4121 19.1848C38.4121 27.4686 23.4121 41.6848 23.4121 41.6848C23.4121 41.6848 8.41211 27.4686 8.41211 19.1848C8.41211 15.2066 9.99246 11.3913 12.8055 8.57821C15.6186 5.76517 19.4339 4.18481 23.4121 4.18481C27.3904 4.18481 31.2057 5.76517 34.0187 8.57821C36.8318 11.3913 38.4121 15.2066 38.4121 19.1848V19.1848Z" stroke="#FAFAFA" stroke-width="1.5"/>
<path d="M23.4121 21.0598C23.9094 21.0598 24.3863 20.8623 24.7379 20.5106C25.0896 20.159 25.2871 19.6821 25.2871 19.1848C25.2871 18.6875 25.0896 18.2106 24.7379 17.859C24.3863 17.5074 23.9094 17.3098 23.4121 17.3098C22.9148 17.3098 22.4379 17.5074 22.0863 17.859C21.7347 18.2106 21.5371 18.6875 21.5371 19.1848C21.5371 19.6821 21.7347 20.159 22.0863 20.5106C22.4379 20.8623 22.9148 21.0598 23.4121 21.0598V21.0598Z" fill="#FAFAFA" stroke="#FAFAFA" stroke-width="1.5" stroke-linecap="round" stroke-linejoin="round"/>
</svg>
