<svg width="46" height="46" viewBox="0 0 46 46" fill="none" xmlns="http://www.w3.org/2000/svg">
<path d="M1.96484 37.9348V36.0598C1.96484 32.5788 3.34765 29.2405 5.80907 26.779C8.27048 24.3176 11.6089 22.9348 15.0898 22.9348V22.9348C18.5708 22.9348 21.9092 24.3176 24.3706 26.779C26.832 29.2405 28.2148 32.5788 28.2148 36.0598V37.9348" stroke="#FAFAFA" stroke-width="1.5" stroke-linecap="round"/>
<path d="M24.4648 26.6848C24.4648 24.1984 25.4526 21.8138 27.2107 20.0557C28.9689 18.2975 31.3534 17.3098 33.8398 17.3098V17.3098C35.071 17.3098 36.2901 17.5523 37.4275 18.0234C38.5649 18.4946 39.5984 19.1851 40.469 20.0557C41.3395 20.9262 42.0301 21.9597 42.5012 23.0972C42.9724 24.2346 43.2148 25.4537 43.2148 26.6848V27.6223" stroke="#FAFAFA" stroke-width="1.5" stroke-linecap="round"/>
<path d="M15.0898 22.9348C17.079 22.9348 18.9866 22.1446 20.3931 20.7381C21.7997 19.3316 22.5898 17.4239 22.5898 15.4348C22.5898 13.4457 21.7997 11.538 20.3931 10.1315C18.9866 8.72499 17.079 7.93481 15.0898 7.93481C13.1007 7.93481 11.1931 8.72499 9.78654 10.1315C8.38002 11.538 7.58984 13.4457 7.58984 15.4348C7.58984 17.4239 8.38002 19.3316 9.78654 20.7381C11.1931 22.1446 13.1007 22.9348 15.0898 22.9348V22.9348Z" stroke="#FAFAFA" stroke-width="1.5" stroke-linecap="round" stroke-linejoin="round"/>
<path d="M33.8398 17.3098C35.3317 17.3098 36.7624 16.7172 37.8173 15.6623C38.8722 14.6074 39.4648 13.1767 39.4648 11.6848C39.4648 10.193 38.8722 8.76223 37.8173 7.70734C36.7624 6.65245 35.3317 6.05981 33.8398 6.05981C32.348 6.05981 30.9173 6.65245 29.8624 7.70734C28.8075 8.76223 28.2148 10.193 28.2148 11.6848C28.2148 13.1767 28.8075 14.6074 29.8624 15.6623C30.9173 16.7172 32.348 17.3098 33.8398 17.3098Z" stroke="#FAFAFA" stroke-width="1.5" stroke-linecap="round" stroke-linejoin="round"/>
</svg>
