<svg width="45" height="45" viewBox="0 0 45 45" fill="none" xmlns="http://www.w3.org/2000/svg">
<path fill-rule="evenodd" clip-rule="evenodd" d="M33.8365 10.5006C32.3118 8.96585 30.4977 7.74894 28.4994 6.92033C26.501 6.09173 24.3581 5.66789 22.1948 5.67339C13.1235 5.67339 5.73882 13.0562 5.73516 22.1312C5.73516 25.0316 6.49232 27.8622 7.93149 30.3592L5.59766 38.8861L14.3225 36.5962C16.7359 37.91 19.4397 38.5989 22.1875 38.6001H22.1948C31.2643 38.6001 38.649 31.2172 38.6527 22.1422C38.6589 19.9798 38.2365 17.8375 37.4098 15.8393C36.5831 13.8411 35.3686 12.0266 33.8365 10.5006V10.5006ZM22.1948 35.8226H22.1893C19.7391 35.8228 17.334 35.1636 15.2263 33.9141L14.7277 33.6171L9.55032 34.9756L10.9308 29.9284L10.6063 29.4114C9.23643 27.2305 8.51125 24.7067 8.51449 22.1312C8.51816 14.5889 14.6543 8.45273 22.2003 8.45273C23.9974 8.44873 25.7775 8.80121 27.4375 9.48975C29.0975 10.1783 30.6045 11.1892 31.8712 12.4641C33.1446 13.7328 34.154 15.2414 34.8409 16.9026C35.5279 18.5637 35.8788 20.3446 35.8733 22.1422C35.8697 29.6846 29.7335 35.8226 22.1948 35.8226ZM29.6987 25.5761C29.2862 25.3689 27.2658 24.3752 26.8882 24.2377C26.5123 24.1002 26.2392 24.0324 25.9642 24.4431C25.6892 24.8537 24.9008 25.7796 24.6607 26.0546C24.4205 26.3296 24.1803 26.3626 23.7697 26.1572C23.359 25.9519 22.0335 25.5174 20.4623 24.1167C19.2395 23.0259 18.4145 21.6802 18.1743 21.2677C17.9342 20.8552 18.1487 20.6334 18.3558 20.4281C18.541 20.2447 18.7665 19.9477 18.9718 19.7076C19.1772 19.4674 19.245 19.2969 19.3825 19.0219C19.52 18.7469 19.4522 18.5067 19.3477 18.3014C19.245 18.0942 18.4218 16.0702 18.079 15.2471C17.7472 14.4496 17.408 14.5559 17.155 14.5449C16.893 14.5342 16.6307 14.5293 16.3685 14.5302C16.16 14.5355 15.9548 14.5839 15.7658 14.6722C15.5768 14.7605 15.4081 14.887 15.2703 15.0436C14.8927 15.4561 13.8312 16.4497 13.8312 18.4737C13.8312 20.4977 15.3052 22.4539 15.5105 22.7289C15.7158 23.0039 18.4108 27.1564 22.5358 28.9384C23.5185 29.3619 24.2848 29.6149 24.8807 29.8056C25.8652 30.1191 26.7617 30.0732 27.4712 29.9687C28.2613 29.8514 29.904 28.9751 30.2468 28.0144C30.5897 27.0537 30.5897 26.2306 30.487 26.0582C30.3843 25.8859 30.1075 25.7814 29.6987 25.5761" fill="#FAFAFA"/>
</svg>
