<svg width="17" height="17" viewBox="0 0 17 17" fill="none" xmlns="http://www.w3.org/2000/svg">
<path fill-rule="evenodd" clip-rule="evenodd" d="M1.32617 8.22451C1.32617 8.0919 1.37938 7.96472 1.4741 7.87096C1.56882 7.77719 1.69729 7.72451 1.83124 7.72451H13.7438L10.5649 4.57851C10.4701 4.48462 10.4168 4.35728 10.4168 4.22451C10.4168 4.09173 10.4701 3.9644 10.5649 3.87051C10.6598 3.77662 10.7884 3.72388 10.9225 3.72388C11.0566 3.72388 11.1853 3.77662 11.2801 3.87051L15.3207 7.87051C15.3677 7.91695 15.405 7.97213 15.4305 8.03288C15.4559 8.09362 15.4691 8.15874 15.4691 8.22451C15.4691 8.29028 15.4559 8.3554 15.4305 8.41614C15.405 8.47689 15.3677 8.53206 15.3207 8.57851L11.2801 12.5785C11.1853 12.6724 11.0566 12.7251 10.9225 12.7251C10.7884 12.7251 10.6598 12.6724 10.5649 12.5785C10.4701 12.4846 10.4168 12.3573 10.4168 12.2245C10.4168 12.0917 10.4701 11.9644 10.5649 11.8705L13.7438 8.72451H1.83124C1.69729 8.72451 1.56882 8.67183 1.4741 8.57806C1.37938 8.48429 1.32617 8.35712 1.32617 8.22451V8.22451Z" fill="#3534BE"/>
</svg>
