<svg width="36" height="37" viewBox="0 0 36 37" fill="none" xmlns="http://www.w3.org/2000/svg">
<g clip-path="url(#clip0_156:869)">
<path fill-rule="evenodd" clip-rule="evenodd" d="M10.9857 3.7591C12.6964 3.6781 13.2418 3.6601 17.5993 3.6601C21.9568 3.6601 22.5022 3.6796 24.2114 3.7591C25.9205 3.8386 27.0872 4.1191 28.108 4.5256C29.177 4.9411 30.1468 5.5906 30.9489 6.4306C31.7655 7.2541 32.3955 8.2501 32.798 9.3511C33.1947 10.4011 33.4659 11.6011 33.5447 13.3561C33.6234 15.1186 33.6409 15.6796 33.6409 20.1601C33.6409 24.6421 33.622 25.2031 33.5447 26.9626C33.4674 28.7176 33.1947 29.9176 32.798 30.9676C32.3955 32.0687 31.7645 33.0664 30.9489 33.8911C30.1468 34.7311 29.177 35.3791 28.108 35.7931C27.0872 36.2011 25.9205 36.4801 24.2143 36.5611C22.5022 36.6421 21.9568 36.6601 17.5993 36.6601C13.2418 36.6601 12.6964 36.6406 10.9857 36.5611C9.27949 36.4816 8.11283 36.2011 7.09199 35.7931C6.02146 35.379 5.05152 34.73 4.2497 33.8911C3.43359 33.0671 2.80203 32.0699 2.39908 30.9691C2.00387 29.9191 1.73262 28.7191 1.65387 26.9641C1.57512 25.2016 1.55762 24.6406 1.55762 20.1601C1.55762 15.6781 1.57658 15.1171 1.65387 13.3591C1.73116 11.6011 2.00387 10.4011 2.39908 9.3511C2.80263 8.25022 3.43467 7.25307 4.25116 6.4291C5.05184 5.58985 6.02081 4.94026 7.09053 4.5256C8.11137 4.1191 9.27803 3.8401 10.9843 3.7591H10.9857ZM24.0816 6.7291C22.3899 6.6496 21.8824 6.6331 17.5993 6.6331C13.3162 6.6331 12.8087 6.6496 11.117 6.7291C9.5522 6.8026 8.70345 7.0711 8.13762 7.2976C7.38949 7.5976 6.85428 7.9531 6.29283 8.5306C5.7606 9.06317 5.351 9.71152 5.09408 10.4281C4.87387 11.0101 4.61283 11.8831 4.54137 13.4926C4.46408 15.2326 4.44803 15.7546 4.44803 20.1601C4.44803 24.5656 4.46408 25.0876 4.54137 26.8276C4.61283 28.4371 4.87387 29.3101 5.09408 29.8921C5.35074 30.6076 5.76053 31.2571 6.29283 31.7896C6.81053 32.3371 7.44199 32.7586 8.13762 33.0226C8.70345 33.2491 9.5522 33.5176 11.117 33.5911C12.8087 33.6706 13.3147 33.6871 17.5993 33.6871C21.8839 33.6871 22.3899 33.6706 24.0816 33.5911C25.6464 33.5176 26.4951 33.2491 27.061 33.0226C27.8091 32.7226 28.3443 32.3671 28.9057 31.7896C29.438 31.2571 29.8478 30.6076 30.1045 29.8921C30.3247 29.3101 30.5857 28.4371 30.6572 26.8276C30.7345 25.0876 30.7505 24.5656 30.7505 20.1601C30.7505 15.7546 30.7345 15.2326 30.6572 13.4926C30.5857 11.8831 30.3247 11.0101 30.1045 10.4281C29.8128 9.6586 29.4672 9.1081 28.9057 8.5306C28.3879 7.9832 27.7576 7.56191 27.061 7.2976C26.4951 7.0711 25.6464 6.8026 24.0816 6.7291V6.7291ZM15.5503 25.2466C16.6946 25.7365 17.9688 25.8027 19.1552 25.4337C20.3416 25.0647 21.3667 24.2835 22.0554 23.2235C22.744 22.1634 23.0535 20.8904 22.931 19.6218C22.8085 18.3531 22.2616 17.1676 21.3837 16.2676C20.824 15.6923 20.1473 15.2518 19.4023 14.9778C18.6572 14.7038 17.8624 14.6031 17.075 14.683C16.2876 14.7629 15.5272 15.0214 14.8486 15.4398C14.1699 15.8582 13.59 16.4262 13.1503 17.1029C12.7107 17.7795 12.4225 18.548 12.3063 19.353C12.1901 20.158 12.2489 20.9795 12.4784 21.7584C12.7079 22.5372 13.1025 23.254 13.6337 23.8572C14.1649 24.4603 14.8194 24.9349 15.5503 25.2466ZM11.7689 14.1631C12.5345 13.3756 13.4435 12.7508 14.4439 12.3246C15.4443 11.8984 16.5165 11.6791 17.5993 11.6791C18.6821 11.6791 19.7543 11.8984 20.7547 12.3246C21.7551 12.7508 22.664 13.3756 23.4297 14.1631C24.1954 14.9506 24.8027 15.8856 25.2171 16.9145C25.6315 17.9435 25.8447 19.0463 25.8447 20.1601C25.8447 21.2738 25.6315 22.3767 25.2171 23.4056C24.8027 24.4346 24.1954 25.3696 23.4297 26.1571C21.8834 27.7476 19.7861 28.6411 17.5993 28.6411C15.4125 28.6411 13.3152 27.7476 11.7689 26.1571C10.2225 24.5666 9.35383 22.4094 9.35383 20.1601C9.35383 17.9108 10.2225 15.7536 11.7689 14.1631V14.1631ZM27.6735 12.9421C27.8632 12.758 28.0151 12.5366 28.1201 12.2911C28.2252 12.0455 28.2813 11.7807 28.2851 11.5125C28.2889 11.2442 28.2403 10.9779 28.1423 10.7293C28.0442 10.4807 27.8987 10.2549 27.7142 10.0652C27.5298 9.87545 27.3102 9.72573 27.0685 9.62487C26.8268 9.52401 26.5679 9.47406 26.3071 9.47797C26.0463 9.48188 25.7889 9.53958 25.5502 9.64764C25.3114 9.7557 25.0962 9.91194 24.9172 10.1071C24.5691 10.4866 24.3785 10.9908 24.3859 11.5125C24.3933 12.0342 24.5981 12.5324 24.9568 12.9014C25.3155 13.2703 25.7999 13.4809 26.3071 13.4885C26.8143 13.4961 27.3044 13.3001 27.6735 12.9421V12.9421Z" fill="#FAFAFA"/>
</g>
<defs>
<clipPath id="clip0_156:869">
<rect width="35" height="36" fill="white" transform="translate(0.0976562 0.872864)"/>
</clipPath>
</defs>
</svg>
