<svg width="304" height="52" viewBox="0 0 304 52" fill="none" xmlns="http://www.w3.org/2000/svg">
<path d="M13.5708 3.14166C9.06107 6.11158 5.62916 10.4565 3.78454 15.5315C1.93992 20.6066 1.78091 26.1411 3.33113 31.3137C4.88134 36.4862 8.05814 41.021 12.39 44.2449C16.7218 47.4689 21.9777 49.2101 27.3776 49.2101C32.7774 49.2101 38.0333 47.4689 42.3652 44.2449C46.697 41.021 49.8738 36.4862 51.424 31.3137C52.9742 26.1411 52.8152 20.6066 50.9706 15.5315C49.126 10.4565 45.6941 6.11158 41.1843 3.14166C36.6745 6.11158 33.2426 10.4565 31.398 15.5315C29.5534 20.6066 29.3944 26.1411 30.9446 31.3137C32.4948 36.4862 35.6716 41.021 40.0034 44.2449C44.3352 47.4689 49.5912 49.2101 54.991 49.2101C60.3909 49.2101 65.6468 47.4689 69.9786 44.2449C74.3104 41.021 77.4872 36.4862 79.0375 31.3137C80.5877 26.1411 80.4287 20.6066 78.584 15.5315C76.7394 10.4565 73.3075 6.11158 68.7977 3.14166C64.288 6.11158 60.8561 10.4565 59.0115 15.5315C57.1668 20.6066 57.0078 26.1411 58.558 31.3137C60.1083 36.4862 63.2851 41.021 67.6169 44.2449C71.9487 47.4689 77.2046 49.2101 82.6045 49.2101C88.0043 49.2101 93.2603 47.4689 97.5921 44.2449C101.924 41.021 105.101 36.4862 106.651 31.3137C108.201 26.1411 108.042 20.6066 106.198 15.5315C104.353 10.4565 100.921 6.11158 96.4112 3.14166C91.9014 6.11158 88.4695 10.4565 86.6249 15.5315C84.7803 20.6066 84.6213 26.1411 86.1715 31.3137C87.7217 36.4862 90.8985 41.021 95.2303 44.2449C99.5622 47.4689 104.818 49.2101 110.218 49.2101C115.618 49.2101 120.874 47.4689 125.206 44.2449C129.537 41.021 132.714 36.4862 134.264 31.3137C135.815 26.1411 135.656 20.6066 133.811 15.5315C131.966 10.4565 128.534 6.11158 124.025 3.14166C119.515 6.11158 116.083 10.4565 114.238 15.5315C112.394 20.6066 112.235 26.1411 113.785 31.3137C115.335 36.4862 118.512 41.021 122.844 44.2449C127.176 47.4689 132.432 49.2101 137.831 49.2101C143.231 49.2101 148.487 47.4689 152.819 44.2449C157.151 41.021 160.328 36.4862 161.878 31.3137C163.428 26.1411 163.269 20.6066 161.424 15.5315C159.58 10.4565 156.148 6.11158 151.638 3.14166C147.128 6.11158 143.696 10.4565 141.852 15.5315C140.007 20.6066 139.848 26.1411 141.398 31.3137C142.949 36.4862 146.125 41.021 150.457 44.2449C154.789 47.4689 160.045 49.2101 165.445 49.2101C170.845 49.2101 176.101 47.4689 180.432 44.2449C184.764 41.021 187.941 36.4862 189.491 31.3137C191.041 26.1411 190.882 20.6066 189.038 15.5315C187.193 10.4565 183.761 6.11158 179.252 3.14166C174.742 6.11158 171.31 10.4565 169.465 15.5315C167.621 20.6066 167.462 26.1411 169.012 31.3137C170.562 36.4862 173.739 41.021 178.071 44.2449C182.403 47.4689 187.658 49.2101 193.058 49.2101C198.458 49.2101 203.714 47.4689 208.046 44.2449C212.378 41.021 215.555 36.4862 217.105 31.3137C218.655 26.1411 218.496 20.6066 216.651 15.5315C214.807 10.4565 211.375 6.11158 206.865 3.14166C202.355 6.11158 198.923 10.4565 197.079 15.5315C195.234 20.6066 195.075 26.1411 196.625 31.3137C198.176 36.4862 201.352 41.021 205.684 44.2449C210.016 47.4689 215.272 49.2101 220.672 49.2101C226.072 49.2101 231.328 47.4689 235.659 44.2449C239.991 41.021 243.168 36.4862 244.718 31.3137C246.268 26.1411 246.109 20.6066 244.265 15.5315C242.42 10.4565 238.988 6.11158 234.479 3.14166C229.969 6.11158 226.537 10.4565 224.692 15.5315C222.848 20.6066 222.689 26.1411 224.239 31.3137C225.789 36.4862 228.966 41.021 233.298 44.2449C237.629 47.4689 242.885 49.2101 248.285 49.2101C253.685 49.2101 258.941 47.4689 263.273 44.2449C267.605 41.021 270.781 36.4862 272.332 31.3137C273.882 26.1411 273.723 20.6066 271.878 15.5315C270.034 10.4565 266.602 6.11158 262.092 3.14166C257.582 6.11158 254.15 10.4565 252.306 15.5315C250.461 20.6066 250.302 26.1411 251.852 31.3137C253.402 36.4862 256.579 41.021 260.911 44.2449C265.243 47.4689 270.499 49.2101 275.899 49.2101C281.299 49.2101 286.554 47.4689 290.886 44.2449C295.218 41.021 298.395 36.4862 299.945 31.3137C301.495 26.1411 301.336 20.6066 299.492 15.5315C297.647 10.4565 294.215 6.11158 289.705 3.14166" stroke="#3534BE" stroke-opacity="0.1" stroke-width="4"/>
</svg>
