<svg width="598" height="664" viewBox="0 0 598 664" fill="none" xmlns="http://www.w3.org/2000/svg">
<path fill-rule="evenodd" clip-rule="evenodd" d="M261.817 1.16311C403.09 -3.7151 524.904 94.1879 571.357 227.695C621.182 370.892 605.612 543.642 480.234 628.897C362.794 708.754 214.075 635.225 103.994 545.495C14.7558 472.754 -20.3123 357.594 11.7476 247.018C47.7358 122.895 132.658 5.623 261.817 1.16311Z" fill="#E5EBF9" fill-opacity="0.5"/>
<path fill-rule="evenodd" clip-rule="evenodd" d="M267.911 57.7253C385.975 53.6486 487.775 135.467 526.597 247.04C568.236 366.711 555.224 511.079 450.444 582.327C352.299 649.065 228.013 587.616 136.018 512.628C61.4405 451.837 32.1338 355.597 58.9266 263.188C89.0022 159.457 159.972 61.4525 267.911 57.7253Z" fill="#8BAAFC" fill-opacity="0.3"/>
<path fill-rule="evenodd" clip-rule="evenodd" d="M277.896 149.556C357.938 146.792 426.955 202.261 453.274 277.903C481.504 359.035 472.682 456.91 401.646 505.213C335.107 550.459 250.847 508.799 188.478 457.96C137.918 416.747 118.049 351.5 136.214 288.851C156.603 218.526 204.718 152.082 277.896 149.556Z" fill="#3534BE" fill-opacity="0.2"/>
</svg>
