<svg width="20" height="26" viewBox="0 0 20 26" fill="none" xmlns="http://www.w3.org/2000/svg">
<path d="M13.7963 9.62818L13.3802 9.69903V10.1211V24.6615L13.3802 24.6621C13.3804 24.866 13.302 25.062 13.1613 25.2095C13.0205 25.3569 12.8283 25.4444 12.6246 25.4536C12.421 25.4628 12.2217 25.3931 12.0682 25.259C11.9146 25.1249 11.8188 24.9368 11.8006 24.7337L11.8005 24.7331L11.1549 17.6311C11.1527 17.6072 11.1517 17.5834 11.1517 17.5594L11.1523 17.0589H10.6517H9.36032H8.85975L8.86032 17.5594C8.86035 17.5834 8.85929 17.6072 8.85715 17.6311L8.21151 24.7331L8.21146 24.7337C8.19324 24.9368 8.09739 25.1249 7.94388 25.259C7.79036 25.3931 7.59102 25.4628 7.38738 25.4536C7.18375 25.4444 6.99153 25.3569 6.85078 25.2095C6.71003 25.062 6.6316 24.866 6.63184 24.6621V24.6615V10.0972V9.67592L6.21667 9.60445C4.92588 9.38223 3.56263 9.05677 2.04591 8.63588L2.04591 8.63586L2.04087 8.63451C1.93977 8.60759 1.845 8.56088 1.76206 8.4971C1.67912 8.43331 1.60965 8.35371 1.55768 8.26291C1.5057 8.1721 1.47225 8.07189 1.45925 7.96807C1.44626 7.86425 1.45398 7.75888 1.48197 7.65806C1.50996 7.55725 1.55766 7.46298 1.62232 7.38072C1.68698 7.29846 1.76731 7.22983 1.85866 7.17882C1.95001 7.12781 2.05057 7.09541 2.15452 7.08351C2.25847 7.07161 2.36375 7.08045 2.46427 7.1095L2.46426 7.10953L2.46948 7.11098C5.46416 7.94153 7.74813 8.36345 10.0096 8.37341C12.2676 8.38339 14.5485 7.98336 17.5327 7.11371L17.5328 7.11368C17.7343 7.05491 17.9509 7.07859 18.1349 7.17952C18.3189 7.28044 18.4553 7.45033 18.5141 7.65183C18.5729 7.85333 18.5492 8.06991 18.4483 8.25395C18.3474 8.43793 18.1776 8.5743 17.9762 8.6331C16.4543 9.07635 15.088 9.40825 13.7963 9.62818ZM11.7071 4.73174C11.2559 5.18288 10.644 5.43633 10.006 5.43633C9.368 5.43633 8.75612 5.18288 8.30498 4.73174C7.85383 4.28059 7.60038 3.66871 7.60038 3.0307C7.60038 2.39268 7.85383 1.7808 8.30498 1.32966C8.75612 0.878511 9.368 0.625061 10.006 0.625061C10.644 0.625061 11.2559 0.878511 11.7071 1.32966C12.1582 1.7808 12.4117 2.39268 12.4117 3.0307C12.4117 3.66871 12.1582 4.28059 11.7071 4.73174Z" stroke="#FAFAFA"/>
</svg>
