<svg width="25" height="25" viewBox="0 0 25 25" fill="none" xmlns="http://www.w3.org/2000/svg">
<path d="M12.8594 22.5562C18.3824 22.5562 22.8594 18.0792 22.8594 12.5562C22.8594 7.03315 18.3824 2.55615 12.8594 2.55615C7.33638 2.55615 2.85938 7.03315 2.85938 12.5562C2.85938 18.0792 7.33638 22.5562 12.8594 22.5562Z" stroke="white" stroke-width="1.5" stroke-linecap="round" stroke-linejoin="round"/>
<path d="M14.3602 9.72616C13.9078 9.56676 13.4238 9.51816 12.9487 9.58444C12.4737 9.65073 12.0214 9.82996 11.6299 10.1071C11.2384 10.3843 10.9191 10.7512 10.6987 11.1773C10.4783 11.6033 10.3633 12.076 10.3633 12.5557C10.3633 13.0353 10.4783 13.508 10.6987 13.9341C10.9191 14.3601 11.2384 14.7271 11.6299 15.0042C12.0214 15.2814 12.4737 15.4606 12.9487 15.5269C13.4238 15.5932 13.9078 15.5446 14.3602 15.3852" stroke="white" stroke-width="1.5" stroke-linecap="round" stroke-linejoin="round"/>
</svg>
