<svg width="45" height="45" viewBox="0 0 45 45" fill="none" xmlns="http://www.w3.org/2000/svg">
<path fill-rule="evenodd" clip-rule="evenodd" d="M34.4361 12.4873C32.9114 10.9526 31.0974 9.73569 29.099 8.90709C27.1007 8.07848 24.9578 7.65465 22.7944 7.66015C13.7231 7.66015 6.33843 15.043 6.33477 24.118C6.33477 27.0183 7.09193 29.849 8.5311 32.346L6.19727 40.8728L14.9221 38.583C17.3355 39.8967 20.0393 40.5856 22.7871 40.5868H22.7944C31.8639 40.5868 39.2486 33.204 39.2523 24.129C39.2585 21.9665 38.8361 19.8243 38.0094 17.8261C37.1827 15.8279 35.9682 14.0133 34.4361 12.4873V12.4873ZM22.7944 37.8093H22.7889C20.3387 37.8096 17.9336 37.1503 15.8259 35.9008L15.3273 35.6038L10.1499 36.9623L11.5304 31.9151L11.2059 31.3981C9.83604 29.2173 9.11086 26.6934 9.1141 24.118C9.11777 16.5756 15.2539 10.4395 22.7999 10.4395C24.5971 10.4355 26.3771 10.788 28.0371 11.4765C29.6971 12.1651 31.2041 13.176 32.4708 14.4508C33.7442 15.7196 34.7536 17.2281 35.4406 18.8893C36.1275 20.5505 36.4784 22.3314 36.4729 24.129C36.4693 31.6713 30.3331 37.8093 22.7944 37.8093ZM30.2983 27.5628C29.8858 27.3556 27.8654 26.362 27.4878 26.2245C27.1119 26.087 26.8388 26.0191 26.5638 26.4298C26.2888 26.8405 25.5004 27.7663 25.2603 28.0413C25.0201 28.3163 24.7799 28.3493 24.3693 28.144C23.9586 27.9386 22.6331 27.5041 21.0619 26.1035C19.8391 25.0126 19.0141 23.667 18.7739 23.2545C18.5338 22.842 18.7483 22.6201 18.9554 22.4148C19.1406 22.2315 19.3661 21.9345 19.5714 21.6943C19.7768 21.4541 19.8446 21.2836 19.9821 21.0086C20.1196 20.7336 20.0518 20.4935 19.9473 20.2881C19.8446 20.081 19.0214 18.057 18.6786 17.2338C18.3468 16.4363 18.0076 16.5426 17.7546 16.5316C17.4926 16.5209 17.2303 16.516 16.9681 16.517C16.7596 16.5223 16.5544 16.5706 16.3654 16.659C16.1764 16.7473 16.0078 16.8737 15.8699 17.0303C15.4923 17.4428 14.4308 18.4365 14.4308 20.4605C14.4308 22.4845 15.9048 24.4406 16.1101 24.7156C16.3154 24.9906 19.0104 29.1431 23.1354 30.9251C24.1181 31.3486 24.8844 31.6016 25.4803 31.7923C26.4648 32.1058 27.3613 32.06 28.0708 31.9555C28.8609 31.8381 30.5036 30.9618 30.8464 30.0011C31.1893 29.0405 31.1893 28.2173 31.0866 28.045C30.9839 27.8726 30.7071 27.7681 30.2983 27.5628" fill="#FAFAFA"/>
</svg>
