<svg width="22" height="22" viewBox="0 0 22 22" fill="none" xmlns="http://www.w3.org/2000/svg">
<path d="M2 7.03986H9C9.59334 7.03986 10.1734 6.86391 10.6667 6.53427C11.1601 6.20462 11.5446 5.73609 11.7716 5.18791C11.9987 4.63973 12.0581 4.03653 11.9424 3.45459C11.8266 2.87264 11.5409 2.33809 11.1213 1.91854C10.7018 1.49898 10.1672 1.21326 9.58527 1.0975C9.00333 0.981746 8.40013 1.04116 7.85195 1.26822C7.30377 1.49528 6.83524 1.8798 6.50559 2.37315C6.17595 2.86649 6 3.44651 6 4.03986" stroke="#FAFAFA" stroke-linecap="round" stroke-linejoin="round"/>
<path d="M3 15.0399H14C14.5933 15.0399 15.1734 15.2158 15.6667 15.5454C16.1601 15.8751 16.5446 16.3436 16.7716 16.8918C16.9987 17.44 17.0581 18.0432 16.9424 18.6251C16.8266 19.2071 16.5409 19.7416 16.1213 20.1612C15.7018 20.5807 15.1672 20.8665 14.5853 20.9822C14.0033 21.098 13.4001 21.0386 12.8519 20.8115C12.3038 20.5844 11.8352 20.1999 11.5056 19.7066C11.1759 19.2132 11 18.6332 11 18.0399" stroke="#FAFAFA" stroke-linecap="round" stroke-linejoin="round"/>
<path d="M1 11.0399H18C18.5933 11.0399 19.1734 10.8639 19.6667 10.5343C20.1601 10.2046 20.5446 9.73609 20.7716 9.18791C20.9987 8.63973 21.0581 8.03653 20.9424 7.45459C20.8266 6.87264 20.5409 6.33809 20.1213 5.91854C19.7018 5.49898 19.1672 5.21326 18.5853 5.0975C18.0033 4.98175 17.4001 5.04116 16.8519 5.26822C16.3038 5.49528 15.8352 5.8798 15.5056 6.37315C15.1759 6.86649 15 7.44651 15 8.03986" stroke="#FAFAFA" stroke-linecap="round" stroke-linejoin="round"/>
</svg>
