<svg width="17" height="17" viewBox="0 0 17 17" fill="none" xmlns="http://www.w3.org/2000/svg">
<path fill-rule="evenodd" clip-rule="evenodd" d="M1.01172 10.1917C1.01172 10.0591 1.06493 9.93189 1.15965 9.83812C1.25437 9.74435 1.38284 9.69167 1.51679 9.69167H13.4294L10.2505 6.54567C10.1556 6.45179 10.1024 6.32445 10.1024 6.19167C10.1024 6.0589 10.1556 5.93156 10.2505 5.83767C10.3453 5.74378 10.4739 5.69104 10.6081 5.69104C10.7422 5.69104 10.8708 5.74378 10.9657 5.83767L15.0062 9.83767C15.0533 9.88412 15.0906 9.93929 15.116 10C15.1415 10.0608 15.1546 10.1259 15.1546 10.1917C15.1546 10.2574 15.1415 10.3226 15.116 10.3833C15.0906 10.444 15.0533 10.4992 15.0062 10.5457L10.9657 14.5457C10.8708 14.6396 10.7422 14.6923 10.6081 14.6923C10.4739 14.6923 10.3453 14.6396 10.2505 14.5457C10.1556 14.4518 10.1024 14.3244 10.1024 14.1917C10.1024 14.0589 10.1556 13.9316 10.2505 13.8377L13.4294 10.6917H1.51679C1.38284 10.6917 1.25437 10.639 1.15965 10.5452C1.06493 10.4515 1.01172 10.3243 1.01172 10.1917V10.1917Z" fill="#3534BE"/>
</svg>
