<svg width="22" height="23" viewBox="0 0 22 23" fill="none" xmlns="http://www.w3.org/2000/svg">
<g clip-path="url(#clip0_157:949)">
<path d="M11.5443 5.70388L10.9681 5.05395L10.9063 4.98428L10.9985 4.97127L11.9483 4.83731C11.9484 4.83729 11.9485 4.83727 11.9486 4.83725C12.0384 4.82334 12.164 4.78737 12.2787 4.7349C12.3957 4.68138 12.4909 4.61534 12.5317 4.54668C12.6263 4.3861 12.677 4.20346 12.6787 4.01709C12.6805 3.83068 12.6331 3.6471 12.5415 3.48477C12.5415 3.48476 12.5415 3.48475 12.5415 3.48474L11.5361 1.71113C11.3861 1.44749 11.1439 1.2857 10.924 1.28438L10.9113 1.28579L10.9073 1.28624L10.9073 1.28607C9.68238 1.32262 8.45301 1.88332 7.40543 2.60817C6.35825 3.33274 5.49791 4.21779 5.01156 4.89525L5.01153 4.89529C4.27976 5.9126 3.07175 8.33103 2.31827 10.6138L2.31826 10.6138C2.06103 11.3915 1.80157 12.7362 1.60285 14.032C1.40416 15.3277 1.2671 16.5685 1.25343 17.1374C1.23972 17.7527 1.28698 18.3807 1.72299 18.9002C2.23207 19.5067 3.21743 19.9493 4.75687 20.2428C7.36778 20.7402 10.3801 20.7987 12.42 20.7987C12.9147 20.7987 13.37 20.7953 13.7704 20.7919C14.0868 20.7884 14.3688 20.7867 14.6097 20.7867C15.6889 20.7867 17.2347 20.6168 18.5016 19.8148C19.6956 19.0556 20.395 17.8771 20.5808 16.3019C20.7009 15.2874 20.3293 14.2338 19.5309 13.3349C18.3762 12.0354 16.5376 11.2583 14.6114 11.2583C13.1499 11.2583 11.8467 11.9298 10.9034 12.6084C10.4322 12.9474 10.0521 13.2873 9.78839 13.5441C9.65657 13.6725 9.55392 13.7801 9.48363 13.8563C9.44849 13.8944 9.42144 13.9246 9.40289 13.9457L9.38151 13.9703L9.37573 13.977C9.37425 13.9788 9.37365 13.9795 9.37366 13.9795L9.37327 13.98L9.21857 14.1656L9.20358 14.1836H9.18016H8.93782C8.40272 14.1836 7.94036 14.259 7.61124 14.3351C7.44673 14.3731 7.31567 14.4112 7.22566 14.4401C7.18065 14.4545 7.14597 14.4666 7.12256 14.4752C7.11093 14.4794 7.10221 14.4827 7.09646 14.485L7.09581 14.4857L7.08612 14.4895L6.00675 14.914L5.90229 14.9551L5.94161 14.85L6.34724 13.7655L6.34806 13.7633L6.34811 13.7633C6.34811 13.7633 6.37737 13.6839 6.41915 13.5409C6.46061 13.399 6.51389 13.1963 6.56222 12.9505C6.65894 12.4585 6.73551 11.7958 6.6589 11.1038C6.54421 10.0663 6.56212 9.11357 6.70146 8.31604C6.84064 7.51943 7.10177 6.87321 7.4774 6.45357C7.80332 6.08868 8.12464 6.00891 8.33969 6.00891L11.5443 5.70388ZM11.5443 5.70388C11.5374 5.73933 11.5134 5.8125 11.4353 5.92565L11.4764 5.95406L11.4353 5.9256C11.2803 6.14951 10.9291 6.27531 10.3609 6.27531C9.76526 6.27531 9.06911 6.1373 8.50591 6.02535L11.5443 5.70388ZM10.8903 0.668728V0.66875H10.9213C11.4062 0.66875 11.8349 0.990523 12.0699 1.40562L10.8903 0.668728ZM10.8903 0.668728L10.8888 0.668772C9.51673 0.709562 8.17098 1.33005 7.04597 2.1109C5.92063 2.89197 5.01112 3.83697 4.51094 4.53446L4.55157 4.56359L4.51094 4.53446C3.74922 5.59672 2.52174 8.03368 1.73347 10.4192L1.73346 10.4192C1.47251 11.2107 1.20604 12.5794 1.00128 13.9012C0.796487 15.2232 0.652525 16.5043 0.637834 17.1213C0.619699 17.8752 0.699008 18.6353 1.25063 19.2936C1.80116 19.9506 2.81454 20.4974 4.64188 20.8463C7.24044 21.3422 10.2317 21.4144 12.42 21.4144C12.8645 21.4144 13.2759 21.4114 13.6442 21.4084C13.6892 21.408 13.7335 21.4076 13.7772 21.4073C14.0911 21.4047 14.3708 21.4023 14.6097 21.4023C16.0763 21.4023 17.6074 21.1096 18.8296 20.3339C20.0539 19.5568 20.9646 18.2973 21.1906 16.3738C21.3649 14.8926 20.6674 13.4586 19.4551 12.397C18.2427 11.3353 16.5122 10.6427 14.6097 10.6427C12.975 10.6427 11.5467 11.3804 10.5295 12.1148C10.0206 12.4822 9.61338 12.8496 9.33337 13.1253C9.19335 13.2631 9.08506 13.378 9.01168 13.4586C8.97499 13.4989 8.94702 13.5306 8.92817 13.5523L8.91469 13.568C8.31838 13.5702 7.80736 13.6557 7.44395 13.7412C7.25985 13.7845 7.1135 13.8278 7.01297 13.8604C6.99223 13.8672 6.97344 13.8734 6.95667 13.8792C6.96904 13.8415 6.98417 13.7938 7.00112 13.737C7.04714 13.5827 7.10662 13.361 7.16068 13.0907C7.26873 12.5504 7.35545 11.8145 7.26877 11.0343L10.8903 0.668728ZM13.0771 3.17937L12.0699 1.40569L7.49701 7.66654C7.62335 7.30515 7.77576 7.04202 7.92707 6.87022C8.07961 6.69702 8.2252 6.62281 8.33798 6.62281C8.3537 6.62281 8.36949 6.62423 8.38536 6.62709C8.979 6.74548 9.70561 6.88922 10.3609 6.88922C11.0143 6.88922 11.6145 6.74637 11.9403 6.27471C12.1393 5.98733 12.1757 5.76269 12.1575 5.60564C12.1488 5.53024 12.1276 5.47198 12.1076 5.43139C12.1215 5.4285 12.137 5.42509 12.1541 5.42111C12.2272 5.40402 12.3277 5.37631 12.437 5.33379C12.6541 5.24941 12.9142 5.10363 13.0594 4.85898C13.2101 4.6054 13.291 4.31652 13.2941 4.02159C13.2973 3.72665 13.2224 3.43613 13.0771 3.17944L13.0771 3.17937Z" fill="#FAFAFA" stroke="#FAFAFA" stroke-width="0.1"/>
<path d="M10.79 3.22299C10.3586 3.1422 9.8447 3.12502 9.44423 3.32783C8.94752 3.58049 8.77392 4.23533 9.06267 4.71142C9.4958 5.42127 10.6663 5.49002 11.407 5.4608C11.737 5.44705 11.7388 4.93142 11.407 4.94517C10.8725 4.9658 10.2056 4.9383 9.73986 4.6547C9.40642 4.45017 9.29298 3.98267 9.70377 3.7747C9.96845 3.63892 10.3655 3.66814 10.6508 3.72142C10.9774 3.77986 11.1166 3.28314 10.79 3.22299Z" fill="#FAFAFA"/>
<path d="M6.22175 14.2608C5.39675 15.4622 5.18362 16.6705 5.47581 18.0936C5.54284 18.4185 6.03956 18.281 5.97253 17.9561C5.70784 16.6636 5.91753 15.6117 6.66691 14.5203C6.85597 14.247 6.40909 13.9892 6.22175 14.2608Z" fill="#FAFAFA"/>
<path d="M8.20999 6.03999C7.82843 5.98499 7.28358 5.52264 7.05671 5.03452C6.98796 4.88671 7.01717 4.67702 6.74733 4.66155C6.37436 4.64093 6.64764 5.3903 6.77483 5.57421C7.12374 6.07436 7.59639 6.35452 8.21514 6.39921C8.54686 6.42327 8.5503 6.08811 8.20999 6.03999Z" fill="#FAFAFA"/>
<path d="M9.20346 15.9211C9.63659 17.7103 11.2591 19.0441 13.0483 19.2864C14.7756 19.5202 17.6769 19.1197 18.5277 17.272C18.6652 16.973 18.2217 16.71 18.0825 17.0125C17.3039 18.7055 14.5247 19.0252 12.9641 18.757C11.4361 18.4941 10.0714 17.3184 9.7019 15.7853C9.62284 15.4622 9.12612 15.598 9.20346 15.9211V15.9211Z" fill="#FAFAFA"/>
</g>
<defs>
<clipPath id="clip0_157:949">
<rect width="22" height="22" fill="white" transform="translate(0 0.039856)"/>
</clipPath>
</defs>
</svg>
