<svg width="22" height="22" viewBox="0 0 22 22" fill="none" xmlns="http://www.w3.org/2000/svg">
<path d="M13.903 14.3941L14.872 16.4543C14.872 16.4543 19.2278 17.3688 19.2278 19.544C19.2278 21.0894 17.2899 21.0894 17.2899 21.0894H12.1289L9.58789 19.6936" stroke="#FAFAFA" stroke-linecap="round" stroke-linejoin="round"/>
<path d="M8.09525 14.3941L7.12742 16.4543C7.12742 16.4543 2.77051 17.3688 2.77051 19.544C2.77051 21.0894 4.70842 21.0894 4.70842 21.0894H7.04611L9.58708 19.6936L12.6927 17.7395" stroke="#FAFAFA" stroke-linecap="round" stroke-linejoin="round"/>
<path d="M0.834961 15.4236C0.834961 15.4236 3.25509 14.9089 4.7074 14.3941C6.15857 7.1829 10.5132 7.69767 10.9988 7.69767C11.4833 7.69767 15.8391 7.1829 17.2903 14.3941C18.7426 14.9077 21.1627 15.4236 21.1627 15.4236" stroke="#FAFAFA" stroke-linecap="round" stroke-linejoin="round"/>
<path d="M10.9989 5.45657C11.5979 5.45657 12.1724 5.22128 12.596 4.80246C13.0195 4.38365 13.2575 3.81561 13.2575 3.22331C13.2575 2.63101 13.0195 2.06298 12.596 1.64416C12.1724 1.22534 11.5979 0.990051 10.9989 0.990051C10.3998 0.990051 9.82535 1.22534 9.40177 1.64416C8.9782 2.06298 8.74023 2.63101 8.74023 3.22331C8.74023 3.81561 8.9782 4.38365 9.40177 4.80246C9.82535 5.22128 10.3998 5.45657 10.9989 5.45657Z" stroke="#FAFAFA" stroke-linecap="round" stroke-linejoin="round"/>
</svg>
