<svg width="174" height="61" viewBox="0 0 174 61" fill="none" xmlns="http://www.w3.org/2000/svg">
<path d="M25.9084 30.1811H19.2953V29.8809C20.4107 28.7656 20.0694 27.2617 18.8656 24.1273L16.7613 18.6739H6.11036L4.95079 21.9377C3.57637 25.8462 3.36151 27.9504 5.16564 29.8809V30.1811H0.0976562V29.8809C1.94286 27.9473 3.1909 25.9725 4.60639 21.9377L11.0488 3.81432L9.63014 0.120758H13.0235L21.3965 21.9377C23.1564 26.2316 24.2749 27.9504 25.9052 29.8809V30.1811H25.9084ZM16.6318 18.3295L11.2194 4.28826L6.23674 18.3295H16.6318Z" fill="#3534BE"/>
<path d="M48.8405 29.881C48.8405 29.9663 48.8405 30.1811 48.8405 30.1811H43.5165C43.5165 30.1811 43.5165 29.9663 43.5165 29.881C44.2053 29.4955 44.3759 28.7656 44.2464 27.347C44.1169 25.9283 43.4723 18.6707 43.2575 16.4401C42.9573 13.2204 41.368 9.56796 37.6745 10.2978C32.8656 11.2425 31.9619 20.2189 31.9619 23.824V27.347C31.9619 28.8509 32.2621 29.4955 32.9509 29.881C32.9509 29.9663 32.9509 30.1811 32.9509 30.1811H27.627C27.627 30.1811 27.627 29.9663 27.627 29.881C28.2715 29.4955 28.5717 28.8509 28.5717 27.347V12.8318C28.5717 11.3279 28.4421 10.8981 27.627 10.7718C27.627 10.6865 27.627 10.4716 27.627 10.4716L31.6649 9.52689H31.9651V20.1779C32.5243 15.369 33.9841 9.52689 39.5671 9.52689C43.0868 9.52689 46.0948 11.9313 46.6098 17.0846C47.0395 21.249 47.4692 25.7609 47.6398 27.347C47.8104 28.892 48.1991 29.4955 48.8405 29.881Z" fill="#3534BE"/>
<path d="M70.876 31.6503L66.2377 30.1811V24.1684C65.1224 27.9473 62.759 30.4371 58.6357 30.4371C55.1128 30.4371 51.6783 28.7625 51.1191 25.6692C50.3892 21.29 53.0085 18.7118 56.3166 17.3374C55.2013 14.8476 56.5315 9.52057 62.2851 9.52057C65.8491 9.52057 69.628 11.41 69.628 16.6928V27.3438C69.628 28.8478 70.2314 30.6077 70.8728 30.9963C70.876 31.0848 70.876 31.6503 70.876 31.6503ZM66.2377 23.3975V16.7845C66.0229 16.6992 64.9928 16.399 63.6627 16.399C58.9833 16.399 52.6262 18.7181 54.4714 26.2759C55.0306 28.595 57.5204 30.0105 59.6689 29.8841C63.4036 29.6661 65.3783 26.4876 66.2377 23.3975ZM56.7463 17.1699C59.0654 16.3105 61.6405 16.0104 63.6595 16.0104C64.6484 16.0104 65.5047 16.181 66.2346 16.3958V16.0957C66.2346 12.8318 64.9454 9.95343 61.8964 9.95343C58.0354 9.95343 55.4572 13.6912 56.7463 17.1699Z" fill="#3534BE"/>
<path d="M76.2377 33.8999L74.9485 38.3676H74.6484C72.1997 32.614 69.0654 30.4244 65.672 30.4244C61.4192 30.4244 58.9737 32.8288 58.7146 35.407C57.8994 43.9948 76.323 41.1607 76.323 51.897C76.323 57.006 71.7289 60.6143 65.6309 60.6143C60.5219 60.6143 57.3433 58.8954 53.9941 56.3615L55.2833 51.4672H55.5834C57.773 55.8464 61.7667 59.7549 67.394 59.7549C71.0433 59.7549 74.0923 57.3915 74.4367 54.6869C75.552 45.5399 57.0874 48.4593 57.0874 37.6819C57.0874 34.2032 59.8773 29.8651 66.7936 29.8651C70.0954 29.862 73.7037 31.9252 76.2377 33.8999Z" fill="#3534BE"/>
<path d="M94.7467 52.8386C93.9316 56.8765 92.1274 60.6112 87.6187 60.6112C83.7956 60.6112 81.4354 58.1214 81.4354 53.0534V40.0422H78.9014V39.6978C82.5507 39.6978 82.8509 35.8747 82.8509 33.8146H86.2443C86.2443 37.1227 82.9804 39.5683 80.4053 39.6978H89.8968V40.0422H84.8288V53.698C84.8288 57.4326 85.8588 60.311 89.5081 59.8402C92.3423 59.4547 93.7609 56.0613 94.5319 52.7533L94.7467 52.8386Z" fill="#3534BE"/>
<path d="M115.618 60.3521H111.239V49.916C110.68 54.7691 109.22 60.608 103.637 60.608C99.6877 60.608 96.5502 58.1183 96.5502 53.0503V43.0028C96.5502 41.4988 96.4206 41.0691 95.6055 40.9427C95.6055 40.8574 95.6055 40.6426 95.6055 40.6426L99.6434 39.6978H99.9436V53.698C99.9436 57.4326 101.877 60.5259 105.571 59.8402C110.38 58.8955 111.239 49.9191 111.239 46.314V43.0059C111.239 41.502 111.11 41.0723 110.294 40.9459C110.294 40.8606 110.294 40.6457 110.294 40.6457L114.332 39.701H114.633V57.5243C114.633 59.0282 114.933 59.6728 115.621 60.0583C115.618 60.1372 115.618 60.3521 115.618 60.3521Z" fill="#3534BE"/>
<path d="M139.97 60.3521H135.632V48.8417C134.817 53.8243 132.627 60.608 126.614 60.608C123.136 60.608 118.842 57.6032 118.671 52.1055C118.412 41.4988 128.292 39.6946 133.057 39.6946C134.046 39.6946 134.902 39.8653 135.632 40.0801V32.693C135.632 31.189 135.502 30.7593 134.643 30.6329C134.643 30.5476 134.643 30.2885 134.643 30.2885L138.722 29.3881H139.022V57.5179C139.022 59.0219 139.322 59.6664 139.967 60.0519C139.97 60.1372 139.97 60.3521 139.97 60.3521ZM135.632 46.3108V40.2981C135.417 40.2539 134.428 39.9127 133.057 39.9127C128.892 39.998 121.42 41.8021 122.02 52.7532C122.235 56.491 124.854 60.5258 128.548 59.8402C133.357 58.8923 135.632 49.9191 135.632 46.3108Z" fill="#3534BE"/>
<path d="M148.305 60.0519C148.305 60.1372 148.305 60.3521 148.305 60.3521H142.978C142.978 60.3521 142.978 60.1372 142.978 60.0519C143.622 59.6665 143.922 59.0219 143.922 57.5179V43.0028C143.922 41.4988 143.793 41.0691 142.978 40.9427C142.978 40.8574 142.978 40.6425 142.978 40.6425L147.015 39.6978H147.316V57.5211C147.316 59.0219 147.616 59.6665 148.305 60.0519ZM143.493 34.2001C143.493 33.0848 144.393 32.1812 145.512 32.1812C146.63 32.1812 147.531 33.0848 147.531 34.2001C147.531 35.3155 146.63 36.2191 145.512 36.2191C144.393 36.2191 143.493 35.3155 143.493 34.2001Z" fill="#3534BE"/>
<path d="M173.683 49.2303C173.683 56.1025 167.799 60.6112 162.046 60.6112C156.248 60.6112 151.31 57.0882 151.31 51.0787C151.31 43.9917 157.193 39.6978 162.946 39.6978C168.703 39.6978 173.683 43.3061 173.683 49.2303ZM170.074 47.8559C168.57 42.7026 164.536 39.0533 159.638 40.4688C154.744 41.8874 153.411 47.2524 154.915 52.45C156.419 57.6033 160.453 61.2968 165.351 59.8371C170.248 58.4216 171.578 53.0534 170.074 47.8559Z" fill="#3534BE"/>
</svg>
