<svg width="106" height="37" viewBox="0 0 106 37" fill="none" xmlns="http://www.w3.org/2000/svg">
<path d="M16.212 18.2531H12.2204V18.0719C12.8936 17.3987 12.6876 16.4909 11.961 14.5991L10.6909 11.3074H4.26204L3.56213 13.2775C2.73254 15.6366 2.60285 16.9067 3.69181 18.0719V18.2531H0.632812V18.0719C1.74656 16.9048 2.49987 15.7128 3.35425 13.2775L7.24285 2.3383L6.38655 0.108887H8.43479L13.4886 13.2775C14.5509 15.8692 15.226 16.9067 16.2101 18.0719V18.2531H16.212ZM10.6127 11.0995L7.34583 2.62436L4.33832 11.0995H10.6127Z" fill="#FAFAFA"/>
<path d="M30.0543 18.0722C30.0543 18.1237 30.0543 18.2534 30.0543 18.2534H26.8408C26.8408 18.2534 26.8408 18.1237 26.8408 18.0722C27.2566 17.8395 27.3596 17.399 27.2814 16.5427C27.2032 15.6864 26.8141 11.3058 26.6845 9.95937C26.5033 8.01603 25.544 5.81141 23.3146 6.25195C20.412 6.82218 19.8666 12.2403 19.8666 14.4163V16.5427C19.8666 17.4505 20.0477 17.8395 20.4635 18.0722C20.4635 18.1237 20.4635 18.2534 20.4635 18.2534H17.25C17.25 18.2534 17.25 18.1237 17.25 18.0722C17.639 17.8395 17.8202 17.4505 17.8202 16.5427V7.78145C17.8202 6.87367 17.742 6.6143 17.25 6.53802C17.25 6.48653 17.25 6.35684 17.25 6.35684L19.6873 5.78662H19.8685V12.2155C20.206 9.31286 21.0871 5.78662 24.457 5.78662C26.5815 5.78662 28.397 7.23793 28.7079 10.3484C28.9673 12.862 29.2266 15.5853 29.3296 16.5427C29.4326 17.4753 29.6672 17.8395 30.0543 18.0722Z" fill="#FAFAFA"/>
<path d="M43.3529 19.1401L40.5533 18.2533V14.6241C39.88 16.905 38.4535 18.4078 35.9648 18.4078C33.8383 18.4078 31.7653 17.397 31.4277 15.5299C30.9872 12.8867 32.5682 11.3305 34.5649 10.5009C33.8917 8.99809 34.6946 5.78271 38.1675 5.78271C40.3187 5.78271 42.5996 6.92316 42.5996 10.1118V16.5407C42.5996 17.4485 42.9638 18.5107 43.351 18.7453C43.3529 18.7987 43.3529 19.1401 43.3529 19.1401ZM40.5533 14.1587V10.1672C40.4236 10.1157 39.8019 9.93449 38.999 9.93449C36.1745 9.93449 32.3374 11.3343 33.4512 15.8961C33.7887 17.2959 35.2915 18.1503 36.5884 18.074C38.8426 17.9424 40.0345 16.0239 40.5533 14.1587ZM34.8243 10.3998C36.2241 9.88108 37.7784 9.69991 38.9971 9.69991C39.594 9.69991 40.1108 9.80289 40.5513 9.93258V9.7514C40.5513 7.78136 39.7732 6.04399 37.9329 6.04399C35.6024 6.04399 34.0462 8.30009 34.8243 10.3998Z" fill="#FAFAFA"/>
<path d="M46.5901 20.4979L45.812 23.1945H45.6308C44.1528 19.7217 42.261 18.4001 40.2127 18.4001C37.6458 18.4001 36.1697 19.8514 36.0133 21.4076C35.5212 26.5911 46.6416 24.8804 46.6416 31.3608C46.6416 34.4446 43.8686 36.6225 40.1879 36.6225C37.1041 36.6225 35.1856 35.585 33.1641 34.0555L33.9422 31.1014H34.1233C35.445 33.7446 37.8555 36.1037 41.2521 36.1037C43.4548 36.1037 45.2952 34.6772 45.503 33.0447C46.1762 27.5237 35.0311 29.2858 35.0311 22.7807C35.0311 20.681 36.7151 18.0625 40.8897 18.0625C42.8827 18.0606 45.0606 19.3059 46.5901 20.4979Z" fill="#FAFAFA"/>
<path d="M57.7614 31.929C57.2694 34.3663 56.1804 36.6205 53.459 36.6205C51.1514 36.6205 49.7268 35.1177 49.7268 32.0587V24.2052H48.1973V23.9973C50.4 23.9973 50.5811 21.6897 50.5811 20.4463H52.6294C52.6294 22.443 50.6593 23.9191 49.1051 23.9973H54.834V24.2052H51.775V32.4477C51.775 34.7019 52.3967 36.4393 54.5994 36.1551C56.3101 35.9225 57.1664 33.8742 57.6317 31.8775L57.7614 31.929Z" fill="#FAFAFA"/>
<path d="M70.3609 36.4643H67.7176V30.1651C67.3801 33.0945 66.499 36.6188 63.1291 36.6188C60.7452 36.6188 58.8515 35.116 58.8515 32.057V25.9924C58.8515 25.0846 58.7733 24.8252 58.2812 24.749C58.2812 24.6975 58.2812 24.5678 58.2812 24.5678L60.7185 23.9976H60.8997V32.4479C60.8997 34.7021 62.0669 36.5692 64.2963 36.1554C67.1989 35.5851 67.7176 30.167 67.7176 27.991V25.9943C67.7176 25.0865 67.6394 24.8272 67.1474 24.7509C67.1474 24.6994 67.1474 24.5697 67.1474 24.5697L69.5847 23.9995H69.7658V34.7575C69.7658 35.6652 69.947 36.0543 70.3628 36.287C70.3609 36.3346 70.3609 36.4643 70.3609 36.4643Z" fill="#FAFAFA"/>
<path d="M85.058 36.4641H82.4396V29.5165C81.9476 32.524 80.6259 36.6185 76.9967 36.6185C74.897 36.6185 72.3052 34.8049 72.2022 31.4865C72.0459 25.0844 78.0094 23.9954 80.8853 23.9954C81.4822 23.9954 81.9991 24.0984 82.4396 24.2281V19.7693C82.4396 18.8615 82.3614 18.6021 81.8427 18.5258C81.8427 18.4743 81.8427 18.3179 81.8427 18.3179L84.3047 17.7744H84.4859V34.7534C84.4859 35.6612 84.6671 36.0502 85.0561 36.2829C85.0581 36.3344 85.058 36.4641 85.058 36.4641ZM82.4396 27.9889V24.3597C82.3099 24.333 81.713 24.127 80.8853 24.127C78.3717 24.1785 73.8614 25.2674 74.2238 31.8775C74.3534 34.1336 75.9344 36.5689 78.1639 36.1551C81.0665 35.583 82.4396 30.1668 82.4396 27.9889Z" fill="#FAFAFA"/>
<path d="M90.0884 36.2831C90.0884 36.3345 90.0884 36.4642 90.0884 36.4642H86.873C86.873 36.4642 86.873 36.3345 86.873 36.2831C87.2621 36.0504 87.4433 35.6613 87.4433 34.7535V25.9923C87.4433 25.0845 87.3651 24.8251 86.873 24.7489C86.873 24.6974 86.873 24.5677 86.873 24.5677L89.3103 23.9975H89.4915V34.7555C89.4915 35.6613 89.6727 36.0504 90.0884 36.2831ZM87.1839 20.6791C87.1839 20.0059 87.7274 19.4604 88.4025 19.4604C89.0777 19.4604 89.6212 20.0059 89.6212 20.6791C89.6212 21.3523 89.0777 21.8977 88.4025 21.8977C87.7274 21.8977 87.1839 21.3523 87.1839 20.6791Z" fill="#FAFAFA"/>
<path d="M105.407 29.7513C105.407 33.8993 101.856 36.6207 98.3827 36.6207C94.8831 36.6207 91.9023 34.4943 91.9023 30.867C91.9023 26.5893 95.4534 23.9976 98.9262 23.9976C102.401 23.9976 105.407 26.1755 105.407 29.7513ZM103.229 28.9217C102.321 25.8112 99.8855 23.6085 96.9295 24.4629C93.9754 25.3192 93.1706 28.5575 94.0783 31.6946C94.9861 34.8051 97.4215 37.0345 100.378 36.1535C103.334 35.2991 104.136 32.0589 103.229 28.9217Z" fill="#FAFAFA"/>
</svg>
