<svg width="60" height="61" viewBox="0 0 60 61" fill="none" xmlns="http://www.w3.org/2000/svg">
<circle cx="29.6635" cy="30.5402" r="29.6635" fill="#3534BE"/>
<path d="M32.5671 33.8945L33.536 35.9547C33.536 35.9547 37.8918 36.8692 37.8918 39.0444C37.8918 40.5898 35.9539 40.5898 35.9539 40.5898H30.7929L28.252 39.194" stroke="#FAFAFA" stroke-width="0.6" stroke-linecap="round" stroke-linejoin="round"/>
<path d="M26.7593 33.8945L25.7915 35.9547C25.7915 35.9547 21.4346 36.8692 21.4346 39.0444C21.4346 40.5898 23.3725 40.5898 23.3725 40.5898H25.7102L28.2511 39.194L31.3568 37.2399" stroke="#FAFAFA" stroke-width="0.6" stroke-linecap="round" stroke-linejoin="round"/>
<path d="M19.499 34.924C19.499 34.924 21.9192 34.4092 23.3715 33.8945C24.8226 26.6833 29.1773 27.198 29.6629 27.198C30.1474 27.198 34.5032 26.6833 35.9543 33.8945C37.4066 34.4081 39.8268 34.924 39.8268 34.924" stroke="#FAFAFA" stroke-width="0.6" stroke-linecap="round" stroke-linejoin="round"/>
<path d="M29.6629 24.9569C30.262 24.9569 30.8365 24.7216 31.26 24.3028C31.6836 23.884 31.9216 23.316 31.9216 22.7237C31.9216 22.1314 31.6836 21.5633 31.26 21.1445C30.8365 20.7257 30.262 20.4904 29.6629 20.4904C29.0639 20.4904 28.4894 20.7257 28.0658 21.1445C27.6423 21.5633 27.4043 22.1314 27.4043 22.7237C27.4043 23.316 27.6423 23.884 28.0658 24.3028C28.4894 24.7216 29.0639 24.9569 29.6629 24.9569Z" stroke="#FAFAFA" stroke-width="0.6" stroke-linecap="round" stroke-linejoin="round"/>
</svg>
