<svg width="60" height="61" viewBox="0 0 60 61" fill="none" xmlns="http://www.w3.org/2000/svg">
<circle cx="29.6635" cy="30.5402" r="29.6635" fill="#3534BE"/>
<path d="M29.5853 20.7347C29.8294 20.7347 30.0872 20.9118 30.2436 21.1868L31.2491 22.9605C31.345 23.1305 31.3946 23.3227 31.3928 23.5179C31.391 23.7131 31.3379 23.9044 31.2388 24.0726C31.1408 24.2376 30.8091 24.3579 30.62 24.3871L29.6695 24.5211L30.2608 25.188C30.2591 25.2224 30.2402 25.3101 30.1405 25.4544C29.9703 25.7002 29.5956 25.8257 29.025 25.8257C28.4234 25.8257 27.7222 25.6865 27.1602 25.5747C27.1086 25.5644 27.0553 25.5593 27.0038 25.5593C26.8027 25.5593 26.495 25.6332 26.1788 25.9872C25.4449 26.8071 25.1441 28.531 25.3727 30.5986C25.5274 31.996 25.0633 33.2713 25.0581 33.2833L24.6525 34.3679L25.7319 33.9433C25.737 33.9382 26.5225 33.634 27.6019 33.634H27.8442L27.9989 33.4483C28.0213 33.4208 30.3227 30.7086 33.2755 30.7086C35.2142 30.7086 37.067 31.4907 38.2323 32.8021C39.0384 33.7096 39.4166 34.7769 39.2945 35.8082C39.1072 37.3963 38.4008 38.5891 37.1925 39.3574C35.9138 40.1669 34.3566 40.3371 33.2738 40.3371C33.0331 40.3371 32.7513 40.3388 32.435 40.3422C32.0345 40.3457 31.5791 40.3491 31.0841 40.3491C29.0439 40.3491 26.0275 40.2907 23.4116 39.7922C21.8699 39.4983 20.8695 39.0532 20.3488 38.4327C19.9002 37.8982 19.8538 37.2536 19.8675 36.6366C19.895 35.4919 20.4175 31.6626 20.9349 30.0985C21.6894 27.8126 22.8994 25.3891 23.635 24.3665C24.6147 23.0018 27.0931 20.8104 29.5699 20.7365L29.5853 20.7347ZM29.5853 20.2191H29.5544C26.837 20.2999 24.2091 22.6786 23.2156 24.064C22.4577 25.121 21.2322 27.553 20.445 29.9352C19.9259 31.5096 19.3811 35.3957 19.3519 36.6229C19.3158 38.1233 19.6699 39.6015 23.3153 40.2976C25.9089 40.7926 28.8961 40.8647 31.0841 40.8647C31.9727 40.8647 32.7289 40.8527 33.2738 40.8527C36.1956 40.8527 39.3564 39.6857 39.805 35.8683C40.1488 32.9465 37.055 30.193 33.2738 30.193C30.0339 30.193 27.6019 33.1183 27.6019 33.1183C26.3988 33.1183 25.5394 33.4621 25.5394 33.4621C25.5394 33.4621 26.055 32.0871 25.8831 30.5402C25.5411 27.4568 26.4675 26.0732 27.002 26.0732C27.0209 26.0732 27.0399 26.0749 27.0588 26.0783C27.6534 26.1969 28.3753 26.3396 29.025 26.3396C29.6747 26.3396 30.2522 26.1969 30.5633 25.7466C30.95 25.188 30.6905 24.8958 30.6905 24.8958C30.6905 24.8958 31.4072 24.7944 31.6805 24.3338C31.8266 24.0878 31.9052 23.8076 31.9082 23.5214C31.9112 23.2353 31.8386 22.9535 31.6977 22.7044L30.6905 20.9307C30.4619 20.5268 30.0477 20.2191 29.5853 20.2191Z" fill="#FAFAFA"/>
<path d="M29.4541 22.7234C29.0227 22.6426 28.5088 22.6254 28.1083 22.8282C27.6116 23.0809 27.438 23.7357 27.7267 24.2118C28.1599 24.9216 29.3303 24.9904 30.0711 24.9612C30.4011 24.9474 30.4028 24.4318 30.0711 24.4455C29.5366 24.4662 28.8697 24.4387 28.4039 24.1551C28.0705 23.9505 27.957 23.483 28.3678 23.2751C28.6325 23.1393 29.0295 23.1685 29.3149 23.2218C29.6414 23.2802 29.7806 22.7835 29.4541 22.7234Z" fill="#FAFAFA"/>
<path d="M24.8858 33.7612C24.0608 34.9626 23.8477 36.1709 24.1399 37.594C24.2069 37.9188 24.7036 37.7813 24.6366 37.4565C24.3719 36.164 24.5816 35.1121 25.331 34.0207C25.52 33.7474 25.0732 33.4896 24.8858 33.7612Z" fill="#FAFAFA"/>
<path d="M26.8741 25.5404C26.4925 25.4854 25.9476 25.023 25.7208 24.5349C25.652 24.3871 25.6812 24.1774 25.4114 24.1619C25.0384 24.1413 25.3117 24.8907 25.4389 25.0746C25.7878 25.5747 26.2605 25.8549 26.8792 25.8996C27.2109 25.9236 27.2144 25.5885 26.8741 25.5404Z" fill="#FAFAFA"/>
<path d="M27.8675 35.4215C28.3006 37.2107 29.9231 38.5444 31.7124 38.7868C33.4397 39.0205 36.341 38.6201 37.1917 36.7724C37.3292 36.4733 36.8858 36.2104 36.7466 36.5129C35.968 38.2058 33.1888 38.5255 31.6281 38.2574C30.1002 37.9944 28.7355 36.8188 28.366 35.2857C28.2869 34.9626 27.7902 35.0983 27.8675 35.4215Z" fill="#FAFAFA"/>
</svg>
