<svg width="60" height="61" viewBox="0 0 60 61" fill="none" xmlns="http://www.w3.org/2000/svg">
<circle cx="29.6635" cy="30.5402" r="29.6635" fill="#3534BE"/>
<path d="M33.4939 27.3257L33.2443 27.3682V27.6215V42.1619V42.1622C33.2446 42.4176 33.1463 42.6632 32.97 42.8479C32.7937 43.0326 32.5529 43.1422 32.2978 43.1538C32.0427 43.1653 31.793 43.078 31.6006 42.91C31.4083 42.742 31.2883 42.5063 31.2654 42.252L31.2654 42.2516L30.6197 35.1493C30.6197 35.1492 30.6197 35.1491 30.6197 35.149C30.6171 35.1193 30.6157 35.0894 30.6158 35.0596L30.6161 34.7592H30.3158H29.0244H28.724L28.7244 35.0596C28.7244 35.0894 28.7231 35.1192 28.7204 35.1489C28.7204 35.1491 28.7204 35.1492 28.7204 35.1493L28.0748 42.2516L28.0747 42.252C28.0519 42.5063 27.9318 42.742 27.7395 42.91C27.5472 43.078 27.2975 43.1653 27.0424 43.1538C26.7873 43.1422 26.5465 43.0326 26.3702 42.8479C26.1939 42.6632 26.0956 42.4176 26.0959 42.1622V42.1619V27.5976V27.3448L25.8468 27.3019C24.5472 27.0782 23.1771 26.7509 21.6565 26.329L21.6565 26.329L21.6535 26.3281C21.5268 26.2944 21.4081 26.2359 21.3042 26.156C21.2003 26.0761 21.1133 25.9764 21.0482 25.8626C20.9831 25.7489 20.9411 25.6233 20.9249 25.4933C20.9086 25.3632 20.9183 25.2312 20.9533 25.1049C20.9884 24.9786 21.0481 24.8605 21.1291 24.7575C21.2101 24.6544 21.3108 24.5685 21.4252 24.5046C21.5396 24.4407 21.6656 24.4001 21.7958 24.3852C21.9261 24.3703 22.0579 24.3813 22.1839 24.4177L22.1839 24.4177L22.187 24.4186C25.174 25.247 27.4385 25.6639 29.6746 25.6738C31.9065 25.6836 34.1671 25.2887 37.1408 24.4221L37.1408 24.422C37.3933 24.3484 37.6646 24.3781 37.8951 24.5045C38.1257 24.6309 38.2966 24.8438 38.3702 25.0962C38.4438 25.3486 38.4141 25.6199 38.2877 25.8505C38.1613 26.081 37.9485 26.2519 37.6961 26.3255C36.1693 26.7702 34.7953 27.1041 33.4939 27.3257ZM31.5125 22.3735C31.0239 22.8622 30.3611 23.1367 29.6701 23.1367C28.979 23.1367 28.3163 22.8622 27.8276 22.3735C27.339 21.8849 27.0644 21.2221 27.0644 20.5311C27.0644 19.84 27.339 19.1773 27.8276 18.6886C28.3163 18.1999 28.979 17.9254 29.6701 17.9254C30.3611 17.9254 31.0239 18.1999 31.5125 18.6886C32.0012 19.1773 32.2757 19.84 32.2757 20.5311C32.2757 21.2221 32.0012 21.8849 31.5125 22.3735Z" stroke="#FAFAFA" stroke-width="0.6"/>
</svg>
