<svg width="60" height="61" viewBox="0 0 60 61" fill="none" xmlns="http://www.w3.org/2000/svg">
<circle cx="29.6635" cy="30.5402" r="29.6635" fill="#3534BE"/>
<path d="M20.6641 26.5402H27.6641C28.2574 26.5402 28.8374 26.3643 29.3308 26.0346C29.8241 25.705 30.2086 25.2365 30.4357 24.6883C30.6628 24.1401 30.7222 23.5369 30.6064 22.955C30.4907 22.373 30.2049 21.8385 29.7854 21.4189C29.3658 20.9993 28.8313 20.7136 28.2493 20.5979C27.6674 20.4821 27.0642 20.5415 26.516 20.7686C25.9678 20.9956 25.4993 21.3802 25.1697 21.8735C24.84 22.3669 24.6641 22.9469 24.6641 23.5402" stroke="#FAFAFA" stroke-width="0.6" stroke-linecap="round" stroke-linejoin="round"/>
<path d="M21.6641 34.5402H32.6641C33.2574 34.5402 33.8374 34.7162 34.3308 35.0458C34.8241 35.3755 35.2086 35.844 35.4357 36.3922C35.6628 36.9404 35.7222 37.5436 35.6064 38.1255C35.4907 38.7074 35.2049 39.242 34.7854 39.6615C34.3658 40.0811 33.8313 40.3668 33.2493 40.4826C32.6674 40.5983 32.0642 40.5389 31.516 40.3119C30.9678 40.0848 30.4993 39.7003 30.1697 39.2069C29.84 38.7136 29.6641 38.1336 29.6641 37.5402" stroke="#FAFAFA" stroke-width="0.6" stroke-linecap="round" stroke-linejoin="round"/>
<path d="M19.6641 30.5402H36.6641C37.2574 30.5402 37.8374 30.3643 38.3308 30.0346C38.8241 29.705 39.2086 29.2365 39.4357 28.6883C39.6628 28.1401 39.7222 27.5369 39.6064 26.955C39.4907 26.373 39.2049 25.8385 38.7854 25.4189C38.3658 24.9993 37.8313 24.7136 37.2493 24.5979C36.6674 24.4821 36.0642 24.5415 35.516 24.7686C34.9678 24.9956 34.4993 25.3802 34.1697 25.8735C33.84 26.3669 33.6641 26.9469 33.6641 27.5402" stroke="#FAFAFA" stroke-width="0.6" stroke-linecap="round" stroke-linejoin="round"/>
</svg>
